<svg xmlns="http://www.w3.org/2000/svg" viewBox="0 0 64 64" role="img" aria-label="Mustafa Mahmoud">
  <rect width="64" height="64" rx="12" fill="#060607"/>
  <circle cx="32" cy="32" r="24" fill="#0b0b0d"/>
  <circle cx="32" cy="32" r="20" fill="#8f101b"/>
  <circle cx="32" cy="32" r="13" fill="#070709"/>
  <circle cx="32" cy="32" r="5" fill="#050506"/>
  <g fill="#050506">
    <path d="M32 11c5 6 5 12 0 18-5-6-5-12 0-18Z"/>
    <path d="M50 42c-8 2-13-1-16-8 8-2 13 1 16 8Z"/>
    <path d="M14 42c3-7 8-10 16-8-3 7-8 10-16 8Z"/>
  </g>
  <circle cx="32" cy="32" r="26" fill="none" stroke="#1a1a1e" stroke-width="2"/>
  <circle cx="32" cy="32" r="20" fill="none" stroke="#d21a2b" stroke-opacity=".38" stroke-width="1.5"/>
</svg>
